<svg width="24" height="24" viewBox="0 0 24 24" fill="none" xmlns="http://www.w3.org/2000/svg">
<rect width="24" height="24" rx="4" fill="#5CDBD3" fill-opacity="0.18"/>
<path fill-rule="evenodd" clip-rule="evenodd" d="M6.24005 5.39999H17.76C18.552 5.39999 19.2 6.04799 19.2 6.83999V18.3515C19.2 18.886 18.5538 19.1537 18.1758 18.7757L16.6715 17.2715C16.4465 17.0464 16.1413 16.92 15.823 16.92H6.24005C5.44805 16.92 4.80005 16.272 4.80005 15.48V6.83999C4.80005 6.04799 5.44805 5.39999 6.24005 5.39999ZM15.7657 9.76568C16.0782 9.45326 16.0782 8.94673 15.7657 8.63431C15.4533 8.32189 14.9468 8.32189 14.6344 8.63431L11.6 11.6686L9.76573 9.83431C9.45332 9.52189 8.94678 9.52189 8.63436 9.83431C8.32194 10.1467 8.32194 10.6533 8.63436 10.9657L11.0344 13.3657C11.3468 13.6781 11.8533 13.6781 12.1657 13.3657L15.7657 9.76568Z" fill="#5CDBD3"/>
</svg>
